<svg xmlns="http://www.w3.org/2000/svg" version="1.1" width="96" height="96" viewbox="0 0 96 96"><rect x="0" y="0" width="96" height="96" fill="#FFFFFF"></rect><g transform="translate(32.712, 58.344)"><path d="M13.78-21.17L13.78-21.17Q13.92-21.17 14.28-21.19 14.64-21.22 14.83-21.22L14.83-21.22Q18-21.22 20.09-19.46 22.18-17.71 22.94-14.59L22.94-14.59Q23.23-13.2 23.28-11.38L23.28-11.38 23.28-9.98Q25.63-13.54 26.88-17.95L26.88-17.95Q27.07-18.62 27.19-18.74 27.31-18.86 27.94-18.86L27.94-18.86Q28.94-18.86 28.94-18.53L28.94-18.53Q28.94-18.48 28.75-17.71L28.75-17.71Q27.36-12.38 23.86-7.73L23.86-7.73 23.33-7.06 23.38-5.9Q23.52-2.02 24.24-1.34L24.24-1.34Q24.38-1.25 24.67-1.25L24.67-1.25Q25.34-1.34 25.92-1.8 26.5-2.26 26.74-2.88L26.74-2.88Q26.83-3.22 26.98-3.29 27.12-3.36 27.7-3.36L27.7-3.36Q28.66-3.36 28.66-2.93L28.66-2.93Q28.66-2.64 28.37-2.06L28.37-2.06Q27.84-1.01 26.83-0.26 25.82 0.48 24.58 0.48L24.58 0.48 24.24 0.48Q20.98 0.48 19.87-2.98L19.87-2.98 19.73-3.31Q17.18-1.63 16.9-1.49L16.9-1.49Q13.34 0.53 9.74 0.53L9.74 0.53Q6.34 0.53 4.25-1.39 2.16-3.31 1.68-6.43L1.68-6.43Q1.63-6.72 1.63-7.49L1.63-7.49Q1.63-8.74 1.78-9.5L1.78-9.5Q2.5-13.82 5.95-17.26 9.41-20.69 13.78-21.17ZM5.81-5.76L5.81-5.76Q5.81-3.7 6.91-2.47 8.02-1.25 9.98-1.25L9.98-1.25Q11.23-1.25 12.77-1.63L12.77-1.63Q15.46-2.3 18-4.22L18-4.22Q18.34-4.46 18.65-4.73 18.96-4.99 19.15-5.18L19.15-5.18 19.34-5.38 19.3-5.81Q19.3-6.24 19.27-7.08 19.25-7.92 19.25-8.74L19.25-8.74Q19.2-10.56 19.18-11.57 19.15-12.58 18.98-14.04 18.82-15.5 18.53-16.3 18.24-17.09 17.74-17.9 17.23-18.72 16.44-19.08 15.65-19.44 14.59-19.44L14.59-19.44Q11.28-19.44 8.78-15.94L8.78-15.94Q7.58-14.16 6.77-11.09L6.77-11.09Q5.81-7.58 5.81-5.76Z" fill="#404040"></path></g></svg>